PathFileType	4	(X/Y/Z)	C:\Users\dbl\Desktop\LZH\BX\Trimmed_bx_y_5_1801.trc
DataRate	CameraRate	NumFrames	NumMarkers	Units	OrigDataRate	OrigDataStartFrame	OrigNumFrames
50.00	50.00	       5	43	mm	50.00	124	       330
Frame#	Time	Top.Head			R.Acromium			L.Acromium			Sternum			R.ASIS			L.ASIS			V.Sacral			R.Thigh.Upper			R.Thigh.Front			R.Thigh.Rear			R.Knee.Lat			R.Knee.Med			R.Shank.Upper			R.Shank.Front			R.Shank.Rear			R.Ankle.Lat			R.Midfoot.Lat			R.Toe.Lat			R.Toe.Tip			R.Toe.Med			R.Ankle.Med			R.Midfoot.Sup			R.Heel			L.Thigh.Upper			L.Thigh.Front			L.Thigh.Rear			L.Knee.Lat			L.Knee.Med			L.Shank.Upper			L.Shank.Front			L.Shank.Rear			L.Ankle.Lat			L.Midfoot.Lat			L.Toe.Lat			L.Toe.Tip			L.Toe.Med			L.Ankle.Med			L.Midfoot.Sup			L.Heel			origin1 front left			origin2 front right			origin 3 back right			origin 4 back leftt			
		X1	Y1	Z1	X2	Y2	Z2	X3	Y3	Z3	X4	Y4	Z4	X5	Y5	Z5	X6	Y6	Z6	X7	Y7	Z7	X8	Y8	Z8	X9	Y9	Z9	X10	Y10	Z10	X11	Y11	Z11	X12	Y12	Z12	X13	Y13	Z13	X14	Y14	Z14	X15	Y15	Z15	X16	Y16	Z16	X17	Y17	Z17	X18	Y18	Z18	X19	Y19	Z19	X20	Y20	Z20	X21	Y21	Z21	X22	Y22	Z22	X23	Y23	Z23	X24	Y24	Z24	X25	Y25	Z25	X26	Y26	Z26	X27	Y27	Z27	X28	Y28	Z28	X29	Y29	Z29	X30	Y30	Z30	X31	Y31	Z31	X32	Y32	Z32	X33	Y33	Z33	X34	Y34	Z34	X35	Y35	Z35	X36	Y36	Z36	X37	Y37	Z37	X38	Y38	Z38	X39	Y39	Z39	X40	Y40	Z40	X41	Y41	Z41	X42	Y42	Z42	X43	Y43	Z43	

124	2.460	-398.88086	282.51379	1793.57813	-540.06403	70.58068	1518.16797	-548.89929	458.18860	1502.48560	-496.15219	267.81140	1358.90210	-599.96765	146.20107	1058.51025	-602.26996	403.34537	1079.62659	-803.61243	262.39023	1024.61523	-621.52979	94.95387	895.15479	-569.25995	151.40652	853.66956	-652.90375	88.22474	746.64850	-649.50269	122.33250	602.82257	-623.19702	230.50073	561.53491	-679.48199	125.24478	539.30017	-591.98828	169.71072	548.71069	-718.57202	129.61368	473.95166	-686.58490	147.13341	213.91557	-614.34229	82.53024	166.78822	-569.27954	58.09362	164.11453	-492.57809	94.74867	163.06247	-530.06689	148.72256	166.46986	-630.95111	220.42969	218.93654	-590.82733	192.13905	170.96262	-715.92615	215.95279	169.95906	-629.60437	446.42456	881.53809	-560.38593	372.89203	848.72211	-638.06293	441.97015	753.09564	-654.72687	414.45996	626.01178	-614.62634	311.66891	582.01276	-655.20752	411.10574	563.60657	-602.25616	368.95837	543.62561	-705.53882	416.63867	510.77222	-678.17273	416.10089	212.93253	-582.13263	467.55176	166.07826	-542.10596	477.16278	159.73929	-481.67505	428.55008	163.95576	-523.80042	386.62006	177.58011	-643.40186	326.45743	206.30518	-593.88446	347.22040	168.78191	-732.52466	346.23611	164.02129	-443.48663	449.10623	147.05260	-450.26563	75.47758	144.64499	-806.27264	82.47407	142.65736	-799.69067	457.77542	145.31717	
125	2.480	-386.82593	281.59732	1786.41943	-532.82990	70.30871	1514.13464	-540.62579	457.09534	1498.10754	-493.21231	267.08762	1353.62708	-605.57727	146.30391	1057.22522	-606.84271	401.23361	1079.90417	-809.14117	262.12976	1024.82312	-625.86957	94.20924	895.20374	-573.11322	150.85052	854.27686	-654.31915	86.85664	746.29572	-647.56244	120.66731	602.64642	-620.45734	229.04102	561.65930	-677.00311	123.84093	539.13129	-589.36200	168.02652	549.31970	-716.58295	128.60295	474.07269	-686.58661	147.10738	213.80147	-614.38995	82.42756	166.71927	-569.33936	57.97223	164.00574	-492.55429	94.79124	162.88844	-530.12366	148.70413	166.46439	-630.80029	220.21805	218.84259	-590.90558	191.96684	170.97902	-715.89240	215.91516	170.01154	-632.95404	446.27322	882.06934	-563.85162	372.26059	850.17047	-638.88641	441.83334	753.45844	-653.39386	414.48248	625.87671	-612.61249	311.72577	582.31860	-653.19373	411.12869	563.31055	-600.07208	369.04514	543.58325	-703.61676	416.60168	510.88885	-677.96967	416.05753	212.94054	-582.12280	467.59402	165.98744	-542.10138	477.16211	159.74641	-481.62399	428.58615	163.93480	-523.79767	386.61240	177.54410	-643.68213	326.39703	205.86958	-593.74695	347.32220	168.69907	-732.54791	346.23975	163.98897	-443.47894	449.11472	147.04187	-450.22919	75.48143	144.62666	-806.24554	82.49859	142.61584	-799.70557	457.77811	145.30885	
126	2.500	-374.86145	280.74210	1778.45862	-525.48761	70.09919	1509.21704	-532.10034	455.99316	1492.98743	-489.93018	266.67627	1348.12378	-611.41278	146.32973	1056.05823	-611.35950	399.32535	1079.87170	-814.95154	261.87811	1024.68408	-630.07324	93.44359	895.21948	-576.90216	150.42758	854.75995	-655.54041	85.37135	745.88721	-645.60394	118.82524	602.39862	-617.75110	227.45117	561.79840	-674.58923	122.15821	538.94537	-586.86047	166.09206	549.96149	-714.72430	127.39390	474.14447	-686.55414	147.00656	213.77942	-614.46448	82.25449	166.60500	-569.40210	57.81548	163.89368	-492.50192	94.87234	162.66156	-530.20880	148.67746	166.46716	-630.60187	219.94135	218.84299	-590.94873	191.78084	171.01315	-715.86487	215.87833	170.08176	-636.23090	446.07657	882.56256	-567.35718	371.39276	851.70410	-639.59778	441.51501	753.71820	-651.60187	414.56546	625.77887	-610.23969	311.88040	582.58350	-650.74664	411.21777	563.18292	-597.48096	369.10092	543.41724	-701.33081	416.69101	511.02762	-677.69855	415.96545	212.92406	-582.11407	467.60831	165.99359	-542.11725	477.19055	159.74094	-481.54883	428.64734	163.96863	-523.79413	386.63055	177.52219	-643.41125	326.52017	205.82597	-593.59027	347.42072	168.61523	-732.55627	346.20416	163.93852	-443.47369	449.10416	147.03339	-450.22607	75.46873	144.63533	-806.20630	82.55087	142.58824	-799.74786	457.77423	145.28523	
127	2.520	-363.09003	279.89923	1769.66638	-517.94928	69.88277	1503.32446	-523.47076	455.07922	1487.18140	-486.47217	266.46548	1342.49072	-617.37726	146.17448	1054.91785	-615.92920	397.76151	1079.62842	-821.17249	261.63718	1024.23901	-634.09851	92.72043	895.30322	-580.48688	149.90002	855.29224	-656.64655	83.82912	745.54785	-643.65497	116.88258	602.13269	-615.17334	225.75851	561.99896	-672.29547	120.30063	538.71228	-584.41669	164.00255	550.65527	-712.94550	126.03269	474.16898	-686.48938	146.80779	213.83412	-614.55695	82.00422	166.45999	-569.45087	57.63631	163.81046	-492.39374	95.01316	162.41351	-530.30676	148.63142	166.49039	-630.45221	219.55659	218.85176	-590.97113	191.60083	171.07451	-715.86353	215.82355	170.18579	-639.47595	445.79855	882.95050	-570.93768	370.32294	853.25128	-640.45636	441.11765	753.75562	-649.41846	414.71173	625.77960	-607.47797	312.12570	582.80627	-647.87506	411.38138	563.15503	-594.52899	369.15359	543.17780	-698.71295	416.84991	511.12262	-677.36487	415.85062	212.88463	-582.11920	467.55475	166.12321	-542.14569	477.25089	159.71532	-481.46414	428.72186	164.03220	-523.77472	386.65012	177.49681	-642.76892	326.75400	205.98683	-593.48346	347.47409	168.51559	-732.54272	346.13535	163.91008	-443.48108	449.08548	147.03438	-450.24139	75.44485	144.65921	-806.14856	82.58963	142.60640	-799.78931	457.76364	145.26485	
128	2.540	-351.62073	279.01721	1760.06445	-510.10986	69.52599	1496.47400	-514.80444	454.31729	1480.58594	-483.00305	266.33762	1336.80298	-623.32477	145.81924	1053.61621	-620.65588	396.42169	1079.13635	-827.76953	261.34500	1023.54395	-637.98175	92.08752	895.48438	-583.87024	149.14615	855.98669	-657.74060	82.30797	745.37073	-641.70715	114.89883	601.95349	-612.77319	223.93974	562.25311	-670.10724	118.34042	538.40955	-581.94196	161.83760	551.36554	-711.19464	124.54742	474.16501	-686.39789	146.51244	213.87822	-614.65521	81.69727	166.30681	-569.47467	57.44112	163.75734	-492.21692	95.20128	162.20473	-530.40131	148.57144	166.54362	-630.48370	219.01018	218.72429	-590.99182	191.44699	171.16130	-715.86371	215.73651	170.32144	-642.81891	445.46426	883.10583	-574.66516	369.21979	854.66870	-641.62537	440.78394	753.37756	-646.95862	414.90082	625.82111	-604.36530	312.44519	582.95026	-644.69897	411.63873	563.09583	-591.32074	369.25687	542.90167	-695.84930	417.03397	511.16501	-677.00635	415.73334	212.86011	-582.15143	467.43536	166.34923	-542.16711	477.32275	159.66811	-481.39996	428.78482	164.09285	-523.73334	386.64566	177.46199	-642.13654	326.94388	206.04376	-593.47882	347.44595	168.41385	-732.51007	346.04947	163.92560	-443.49628	449.08463	147.04401	-450.25391	75.43064	144.67773	-806.09082	82.58935	142.65053	-799.79999	457.76279	145.26697	
